<svg data-v-423bf9ae="" xmlns="http://www.w3.org/2000/svg" viewBox="0 0 574 90" class="iconLeft"><!----><!----><!----><g data-v-423bf9ae="" id="46b04019-daf7-4975-8dff-3dc5e3f9c4a8" fill="#000000" transform="matrix(5.577908720429519,0,0,5.577908720429519,103.75274042089171,14.647032006273474)"><path d="M5.12 5.03L5.12 5.03C5.89 5.03 6.54 4.42 6.54 3.64C6.54 2.93 5.98 2.21 5.12 2.21L3.46 2.21C2.84 2.21 2.84 3.15 3.46 3.15L5.12 3.15C5.39 3.15 5.61 3.35 5.61 3.63C5.61 4.17 5.10 4.10 4.66 4.10C3.91 4.10 3.93 4.98 4.66 5.03C4.82 5.04 5.00 5.03 5.12 5.03ZM5.99 9.90L5.99 9.90L3.85 6.83C3.58 6.48 3.00 6.62 3.00 7.13L3.00 10.18C3.00 10.79 3.93 10.79 3.93 10.18L3.93 8.58L5.22 10.44C5.59 10.95 6.34 10.40 5.99 9.90ZM2.06 10.18L2.06 10.18L2.06 1.29L5.28 1.29C5.91 1.29 6.48 1.54 6.90 1.96C8.34 3.42 7.34 5.96 5.28 5.96C4.93 5.96 4.65 6.37 4.93 6.73L7.52 10.44C7.85 10.95 8.62 10.40 8.27 9.90L6.10 6.79C6.66 6.65 7.17 6.34 7.57 5.94C9.59 3.86 8.15 0.35 5.28 0.35L1.60 0.35C1.34 0.35 1.12 0.56 1.12 0.81L1.12 10.18C1.12 10.79 2.06 10.79 2.06 10.18ZM15.16 2.23L15.16 2.23L12.19 2.23C11.93 2.23 11.72 2.42 11.72 2.69L11.72 4.56C11.72 4.82 11.93 5.03 12.19 5.03L14.29 5.03C14.56 5.03 14.77 4.82 14.77 4.56C14.77 4.30 14.56 4.09 14.29 4.09L12.66 4.09L12.66 3.15L15.16 3.15C15.43 3.15 15.64 2.94 15.64 2.69C15.64 2.42 15.43 2.23 15.16 2.23ZM14.29 5.96L14.29 5.96L12.19 5.96C11.93 5.96 11.72 6.17 11.72 6.43L11.72 8.30C11.72 8.55 11.93 8.76 12.19 8.76L15.16 8.76C15.43 8.76 15.64 8.55 15.64 8.30C15.64 8.04 15.43 7.83 15.16 7.83L12.66 7.83L12.66 6.90L14.29 6.90C14.56 6.90 14.77 6.69 14.77 6.43C14.77 6.17 14.56 5.96 14.29 5.96ZM15.16 9.70L15.16 9.70L10.79 9.70L10.79 1.29L15.16 1.29C15.43 1.29 15.64 1.08 15.64 0.81C15.64 0.56 15.43 0.35 15.16 0.35L10.32 0.35C10.07 0.35 9.86 0.56 9.86 0.81L9.86 10.18C9.86 10.43 10.07 10.64 10.32 10.64L15.16 10.64C15.43 10.64 15.64 10.43 15.64 10.18C15.64 9.91 15.43 9.70 15.16 9.70ZM20.22 7.84L20.22 7.84L21.57 7.84C21.84 7.84 22.06 7.63 22.06 7.36C22.06 7.29 22.05 7.24 22.02 7.18L21.34 5.50C21.24 5.28 20.97 5.17 20.72 5.26C20.50 5.35 20.38 5.63 20.47 5.87L20.89 6.90L20.22 6.90C19.96 6.90 19.75 7.10 19.75 7.36C19.75 7.63 19.96 7.84 20.22 7.84ZM19.53 10.26L19.53 10.26L19.77 9.72L22.04 9.72L22.26 10.26C22.36 10.51 22.64 10.61 22.88 10.53C23.11 10.42 23.21 10.15 23.13 9.91L22.79 9.10C22.74 8.92 22.55 8.76 22.34 8.76L19.45 8.76L19.45 8.76C19.28 8.76 19.10 8.89 19.01 9.06L18.68 9.91C18.58 10.15 18.69 10.42 18.93 10.53C19.18 10.61 19.45 10.50 19.53 10.26ZM17.53 10.26L17.53 10.26L20.90 1.76L24.28 10.26C24.37 10.50 24.65 10.61 24.89 10.53C25.13 10.42 25.24 10.15 25.14 9.91L21.34 0.36C21.29 0.25 21.21 0.14 21.07 0.10C20.85 0 20.57 0.11 20.47 0.36L16.65 9.91C16.56 10.15 16.69 10.42 16.91 10.53C17.15 10.61 17.42 10.50 17.53 10.26ZM33.15 0.56L33.15 0.56C32.49 0.29 31.79 0.15 31.08 0.15C27.55 0.15 25.80 2.81 25.82 5.47C25.83 8.09 27.59 10.71 31.08 10.71C31.79 10.71 32.49 10.57 33.15 10.30C33.71 10.08 33.36 9.21 32.79 9.45C32.24 9.66 31.68 9.79 31.08 9.79C28.21 9.79 26.74 7.64 26.73 5.45C26.73 2.98 28.52 1.08 31.04 1.08C31.64 1.08 32.23 1.19 32.79 1.43C33.36 1.65 33.71 0.80 33.15 0.56ZM32.51 7.50L32.51 7.50C32.03 7.77 31.51 7.88 31.02 7.87C29.82 7.83 28.74 6.99 28.74 5.45C28.74 3.26 30.88 2.46 32.51 3.36C33.04 3.67 33.49 2.84 32.94 2.56C30.67 1.29 27.82 2.56 27.82 5.45C27.82 7.52 29.33 8.78 31.04 8.81C31.68 8.82 32.34 8.67 32.94 8.32C33.49 8.02 33.04 7.22 32.51 7.50ZM41.22 2.23L41.22 2.23L38.86 2.23C38.61 2.23 38.40 2.44 38.40 2.70L38.40 10.16C38.40 10.43 38.61 10.64 38.86 10.64C39.13 10.64 39.34 10.43 39.34 10.16L39.34 3.15L41.22 3.15C41.47 3.15 41.66 2.95 41.66 2.70C41.66 2.44 41.47 2.23 41.22 2.23ZM34.68 1.29L34.68 1.29L41.22 1.29C41.47 1.29 41.66 1.08 41.66 0.83C41.66 0.56 41.47 0.36 41.22 0.36L34.68 0.36C34.41 0.36 34.20 0.56 34.20 0.83C34.20 1.08 34.41 1.29 34.68 1.29ZM34.68 3.15L34.68 3.15L36.53 3.15L36.53 10.16C36.53 10.43 36.75 10.64 37.00 10.64C37.27 10.64 37.48 10.43 37.48 10.16L37.48 2.70C37.48 2.44 37.27 2.23 37.00 2.23L34.68 2.23C34.41 2.23 34.20 2.44 34.20 2.70C34.20 2.95 34.41 3.15 34.68 3.15ZM51.14 8.78L51.14 8.78C51.55 8.78 51.90 8.62 52.15 8.37C53.05 7.49 52.44 5.96 51.14 5.96L49.50 5.96C48.89 5.96 48.89 6.89 49.50 6.89L51.14 6.89C51.44 6.89 51.63 7.08 51.63 7.36C51.63 8.29 50.15 7.39 50.15 8.30C50.15 8.88 50.81 8.78 51.14 8.78ZM49.50 3.14L49.50 3.14L51.14 3.14C51.44 3.14 51.63 3.35 51.63 3.61C51.63 4.19 51.00 4.09 50.62 4.09C50.01 4.09 50.01 5.03 50.62 5.03C51.20 5.03 51.67 5.08 52.15 4.62C53.05 3.75 52.44 2.20 51.14 2.20L49.50 2.20C48.89 2.20 48.89 3.14 49.50 3.14ZM48.09 10.19L48.09 10.19L48.09 1.26L51.31 1.26C52.60 1.26 53.62 2.32 53.62 3.61C53.62 5.08 52.50 5.25 53.05 5.84C54.28 7.10 53.47 9.72 51.32 9.72L49.50 9.72C48.89 9.72 48.89 10.67 49.50 10.67L51.32 10.67C53.94 10.67 55.47 7.64 53.98 5.49C54.39 4.90 54.56 4.24 54.56 3.58C54.56 1.82 53.23 0.31 51.31 0.31L47.61 0.31C47.36 0.31 47.15 0.53 47.15 0.78L47.15 10.19C47.15 10.81 48.09 10.81 48.09 10.19ZM62.27 9.70L62.27 9.70L57.29 9.70L57.29 0.81C57.29 0.56 57.08 0.35 56.83 0.35C56.56 0.35 56.35 0.56 56.35 0.81L56.35 10.18C56.35 10.43 56.56 10.64 56.83 10.64L62.27 10.64C62.54 10.64 62.73 10.43 62.73 10.18C62.73 9.91 62.54 9.70 62.27 9.70ZM58.23 0.81L58.23 0.81L58.23 8.30C58.23 8.55 58.44 8.76 58.69 8.76L62.27 8.76C62.54 8.76 62.73 8.55 62.73 8.30C62.73 8.04 62.54 7.83 62.27 7.83L59.16 7.83L59.16 0.81C59.16 0.56 58.95 0.35 58.69 0.35C58.44 0.35 58.23 0.56 58.23 0.81ZM74.61 3.88L74.61 3.88C74.26 2.77 73.56 1.83 72.65 1.16C71.74 0.52 70.64 0.14 69.44 0.14C62.34 0.14 62.34 10.82 69.44 10.82C70.64 10.82 71.74 10.43 72.65 9.79C73.56 9.13 74.26 8.18 74.61 7.08C74.68 6.83 74.55 6.55 74.30 6.48C74.05 6.41 73.77 6.54 73.70 6.79C73.40 7.70 72.84 8.47 72.07 9.02C71.34 9.55 70.43 9.86 69.44 9.86C63.60 9.86 63.60 1.09 69.44 1.09C70.43 1.09 71.34 1.41 72.07 1.93C72.84 2.49 73.40 3.26 73.70 4.16C73.77 4.41 74.05 4.55 74.30 4.47C74.55 4.40 74.68 4.13 74.61 3.88ZM66.56 7.17L66.56 7.17C66.85 7.69 67.27 8.12 67.77 8.43C68.28 8.71 68.85 8.88 69.44 8.88C70.38 8.88 71.22 8.50 71.83 7.87C72.42 7.25 72.80 6.41 72.80 5.47C72.80 4.54 72.42 3.70 71.83 3.08C71.22 2.46 70.38 2.09 69.44 2.09C68.85 2.09 68.28 2.24 67.77 2.53C67.27 2.83 66.85 3.26 66.56 3.78C66.42 4.02 66.50 4.31 66.72 4.44C66.96 4.56 67.24 4.48 67.37 4.24C67.59 3.88 67.90 3.57 68.26 3.36C68.61 3.15 69.01 3.04 69.44 3.04C70.11 3.04 70.71 3.32 71.13 3.75C71.58 4.19 71.85 4.80 71.85 5.47C71.85 6.16 71.58 6.78 71.13 7.21C70.71 7.66 70.11 7.92 69.44 7.92C69.01 7.92 68.60 7.80 68.26 7.59C67.90 7.39 67.59 7.07 67.37 6.71C67.24 6.47 66.96 6.40 66.72 6.52C66.50 6.66 66.42 6.93 66.56 7.17ZM84.22 9.63L84.22 9.63L84.22 5.49C84.22 4.87 83.29 4.87 83.29 5.49L83.29 9.35C80.58 10.68 77.06 9.10 77 5.57C76.94 2.23 80.05 0.39 83.34 1.46L83.34 1.46C84 1.68 84.29 0.78 83.62 0.57C79.70-0.69 75.99 1.60 76.06 5.59C76.13 9.84 80.47 11.97 83.97 10.04C84.13 9.95 84.22 9.80 84.22 9.63ZM83.48 2.51L83.48 2.51C82.85 2.24 82.14 2.11 81.31 2.14C76.87 2.30 77.07 8.83 81.33 8.83C81.68 8.83 82.32 8.82 82.32 8.32L82.32 5.49C82.32 4.87 81.37 4.87 81.37 5.49L81.37 7.88C78.25 7.91 78.15 3.19 81.34 3.07C82.01 3.05 82.60 3.15 83.10 3.37C83.66 3.61 84.04 2.77 83.48 2.51Z"></path></g><defs data-v-423bf9ae=""><linearGradient data-v-423bf9ae="" gradientTransform="rotate(25)" id="39d65296-6fe4-4b92-af44-c8f8866abfd2" x1="0%" y1="0%" x2="100%" y2="0%"><stop data-v-423bf9ae="" offset="0%" style="stop-color: rgb(65, 226, 150); stop-opacity: 1;"></stop><stop data-v-423bf9ae="" offset="100%" style="stop-color: rgb(0, 196, 238); stop-opacity: 1;"></stop></linearGradient></defs><g data-v-423bf9ae="" id="43a4c895-694a-409c-873b-dc0a8bbea2bf" transform="matrix(2.8125,0,0,2.8125,0,0)" stroke="none" fill="url(#39d65296-6fe4-4b92-af44-c8f8866abfd2)"><path d="M6.651 19.325h6.024V32h6.65V19.325h6.024V32H32V0h-6.651v12.675h-6.024V0h-6.65v12.675H6.651V0H0v32h6.651z"></path></g><!----></svg>